<svg xmlns="http://www.w3.org/2000/svg" width="900" height="900"><defs><clipPath id="imageClipPath"><path d="M 1820 7.251 C 1817.525 8.360, 1814.306 9.882, 1812.846 10.634 C 1811.386 11.385, 1809.072 12, 1807.704 12 C 1806.336 12, 1803.480 13.380, 1801.358 15.066 C 1794.664 20.386, 1785.923 25, 1782.540 25 C 1780.673 25, 1777.889 26.056, 1775.911 27.515 C 1768.910 32.676, 1758.282 39.305, 1751.538 42.717 C 1747.708 44.654, 1742.533 47.920, 1740.038 49.974 C 1737.542 52.028, 1733.015 55.099, 1729.978 56.797 C 1726.941 58.496, 1723.341 61.081, 1721.978 62.540 C 1720.615 64, 1717.901 66.015, 1715.948 67.017 C 1713.994 68.019, 1710.103 70.900, 1707.301 73.419 C 1704.236 76.175, 1701.249 78, 1699.804 78 C 1696.516 78, 1683.622 86.631, 1674.249 95.106 C 1671.361 97.718, 1666.636 101.211, 1663.749 102.870 C 1660.862 104.529, 1656.267 108.161, 1653.538 110.943 C 1650.808 113.724, 1648.149 116, 1647.628 116 C 1647.108 116, 1644.375 117.741, 1641.556 119.870 C 1638.737 121.998, 1634.616 124.665, 1632.398 125.797 C 1630.181 126.928, 1627.758 128.587, 1627.014 129.483 C 1625.799 130.947, 1622.341 132.881, 1609.500 139.278 C 1607.300 140.374, 1604.427 142.110, 1603.115 143.135 C 1601.803 144.161, 1600.032 145, 1599.180 145 C 1598.327 145, 1596.551 146.012, 1595.234 147.250 C 1593.233 149.129, 1591.714 149.500, 1586.024 149.500 C 1581.183 149.500, 1578.673 149.968, 1577.355 151.116 C 1574.518 153.587, 1570.342 154.224, 1567.241 152.658 C 1565.734 151.897, 1563.984 151.460, 1563.354 151.686 C 1562.724 151.912, 1560.699 151.177, 1558.854 150.052 C 1557.009 148.928, 1553.853 148.006, 1551.839 148.004 C 1549.009 148.001, 1547.610 147.325, 1545.678 145.030 C 1543.264 142.160, 1531.574 137.093, 1530.302 138.364 C 1529.991 138.675, 1528.922 138.493, 1527.926 137.960 C 1524.970 136.378, 1521.158 138.879, 1515.861 145.877 C 1511.760 151.295, 1510.163 152.597, 1505.745 154.123 C 1502.860 155.119, 1499.600 155.956, 1498.500 155.982 C 1497.400 156.008, 1494.522 156.718, 1492.105 157.560 C 1488.152 158.936, 1487.382 158.935, 1484.454 157.545 C 1482.663 156.695, 1480.881 156, 1480.493 156 C 1480.105 156, 1478.060 154.631, 1475.948 152.958 L 1472.107 149.917 1466.108 151.887 C 1460.613 153.690, 1459.434 153.748, 1452.101 152.574 C 1447.698 151.869, 1442.964 150.552, 1441.583 149.646 C 1440.201 148.741, 1438.094 148, 1436.901 148 C 1434.189 148, 1426.820 150.057, 1425.550 151.169 C 1423.741 152.752, 1420.043 151.984, 1412.703 148.500 C 1408.647 146.575, 1404.883 145, 1404.339 145 C 1403.794 145, 1402.292 146.125, 1401 147.500 C 1399.473 149.125, 1397.565 150, 1395.548 150 C 1393.841 150, 1391.439 150.705, 1390.209 151.566 C 1388.521 152.748, 1386.471 152.999, 1381.854 152.588 C 1376.395 152.103, 1375.424 152.306, 1372.839 154.482 C 1369.394 157.381, 1364.624 158.440, 1358.772 157.605 C 1356.422 157.270, 1350.675 156.884, 1346 156.748 C 1337.550 156.501, 1337.471 156.522, 1332.673 160.250 C 1327.143 164.547, 1323.603 165.746, 1321.530 164.025 C 1320.735 163.365, 1318.378 162.720, 1316.293 162.590 C 1311.079 162.267, 1309.378 161.327, 1308.005 158.011 C 1306.127 153.478, 1297.686 146.916, 1294.085 147.190 C 1292.121 147.340, 1290.258 146.652, 1288.723 145.210 C 1284.360 141.111, 1272.214 143.241, 1269.805 148.528 C 1268.580 151.218, 1266.976 151.593, 1263.851 149.920 C 1261.175 148.488, 1258.390 150.966, 1256.832 156.165 C 1256.149 158.445, 1254.351 161.020, 1252.408 162.503 C 1249.653 164.604, 1248.051 164.999, 1242.317 164.993 C 1237.196 164.988, 1234.753 164.492, 1232.500 163 C 1230.850 161.907, 1228.150 160.992, 1226.500 160.967 C 1221.182 160.886, 1206.624 157.398, 1202.290 155.167 C 1199.974 153.975, 1197.222 153, 1196.175 153 C 1195.127 153, 1193.197 152.160, 1191.885 151.133 C 1190.573 150.107, 1186.773 147.893, 1183.440 146.215 C 1180.107 144.537, 1176.800 142.463, 1176.090 141.608 C 1175.380 140.753, 1173.157 139.757, 1171.150 139.395 C 1166.337 138.527, 1164.514 137.515, 1159.596 132.982 C 1154.289 128.090, 1145.234 122, 1143.268 122 C 1141.169 122, 1124.798 112.539, 1122.496 109.996 C 1121.471 108.863, 1119.027 106.961, 1117.066 105.769 C 1115.105 104.577, 1111.250 101.961, 1108.500 99.955 C 1103.822 96.543, 1097.574 93.708, 1088.764 91.002 C 1086.709 90.371, 1084.793 89.474, 1084.506 89.009 C 1084.219 88.545, 1080.500 85.797, 1076.242 82.903 C 1071.984 80.009, 1065.720 75.518, 1062.323 72.922 C 1058.925 70.327, 1054.425 67.645, 1052.323 66.963 C 1050.220 66.281, 1047.340 64.909, 1045.922 63.915 C 1043.365 62.124, 1027.824 55, 1026.472 55 C 1025.152 55, 1003.109 43.985, 1002.519 43.031 C 1001.132 40.787, 989.506 35.569, 985.614 35.444 C 983.351 35.372, 980.487 34.965, 979.250 34.539 C 977.446 33.920, 976.997 34.137, 976.985 35.633 C 976.977 36.660, 976.346 39.300, 975.584 41.500 C 974.571 44.425, 973.567 45.590, 971.849 45.835 C 968.044 46.377, 967.791 47.399, 970.052 53.096 C 972.249 58.636, 972.279 66.754, 970.111 69.366 C 969.585 70, 968.852 73.440, 968.483 77.010 C 968.082 80.892, 967.032 84.609, 965.870 86.259 C 964.044 88.851, 964.019 89.291, 965.462 93.539 C 966.532 96.693, 966.750 99.185, 966.181 101.780 C 965.671 104.107, 966.042 112.242, 967.170 123.500 C 968.163 133.400, 969.439 146.675, 970.006 153 C 971.696 171.840, 975.579 187.626, 981.010 197.731 C 983.148 201.708, 986.308 209.133, 988.033 214.231 C 989.758 219.329, 993.424 227.509, 996.180 232.410 C 998.936 237.310, 1003.207 246.310, 1005.672 252.410 C 1009.407 261.652, 1010.298 265.166, 1011.016 273.500 C 1012.069 285.709, 1013.502 293.073, 1015.975 299 C 1017.008 301.475, 1018.591 308.900, 1019.491 315.500 C 1020.392 322.100, 1022.052 329.750, 1023.181 332.500 C 1024.309 335.250, 1025.627 340.111, 1026.110 343.303 C 1026.592 346.495, 1027.440 349.953, 1027.993 350.988 C 1028.547 352.022, 1029 354.528, 1029 356.557 C 1029 359.790, 1029.798 361.009, 1035.471 366.436 C 1041.363 372.072, 1042.076 373.205, 1043.439 379.079 C 1044.262 382.628, 1044.680 386.508, 1044.368 387.700 C 1044.056 388.892, 1044.344 391.511, 1045.006 393.519 C 1046.130 396.924, 1046.029 397.360, 1043.516 399.983 C 1041.315 402.280, 1041.014 403.159, 1041.877 404.770 C 1042.458 405.855, 1042.919 410.603, 1042.901 415.320 C 1042.875 422.280, 1042.501 424.364, 1040.917 426.378 C 1039.062 428.737, 1039.047 429.031, 1040.621 432.331 C 1042.214 435.672, 1042.193 435.920, 1040.066 438.907 C 1038.850 440.615, 1038.038 442.796, 1038.262 443.756 C 1038.485 444.715, 1037.839 446.909, 1036.826 448.631 C 1034.988 451.755, 1034.990 451.775, 1037.992 457.825 C 1039.646 461.160, 1041 465.279, 1041 466.979 C 1041 468.679, 1041.716 471.162, 1042.590 472.497 C 1043.927 474.538, 1043.988 475.507, 1042.971 478.587 C 1042.022 481.463, 1042.027 483.051, 1042.994 485.981 C 1043.923 488.797, 1043.946 490.232, 1043.088 491.835 C 1042.463 493.003, 1042.238 495.102, 1042.589 496.499 C 1042.940 497.896, 1042.666 500.392, 1041.981 502.045 C 1040.924 504.597, 1040.983 505.323, 1042.368 506.854 C 1043.266 507.846, 1044 509.833, 1044 511.270 C 1044 512.706, 1044.498 514.190, 1045.108 514.567 C 1045.795 514.992, 1045.980 516.726, 1045.594 519.139 C 1045.150 521.913, 1045.447 523.752, 1046.628 525.555 C 1047.840 527.405, 1048.031 528.674, 1047.341 530.291 C 1046.468 532.336, 1046.842 536.314, 1048.566 543.322 C 1048.979 544.998, 1048.753 547.094, 1048.010 548.481 C 1047.225 549.949, 1047.011 552.245, 1047.437 554.659 C 1047.809 556.771, 1048.110 559.850, 1048.105 561.500 C 1048.092 565.851, 1050.074 574.147, 1051.738 576.706 C 1053.034 578.698, 1052.913 579.390, 1050.490 583.842 C 1048.228 587.997, 1047.992 589.117, 1048.988 590.979 C 1050.992 594.723, 1049.420 597.891, 1044.517 599.993 C 1041.523 601.276, 1039.261 603.210, 1037.511 605.982 C 1036.090 608.234, 1033.856 610.564, 1032.548 611.160 C 1031.240 611.756, 1029.957 613.057, 1029.697 614.050 C 1029.437 615.044, 1027.201 617.126, 1024.728 618.678 C 1022.254 620.230, 1018.694 623.525, 1016.817 626 C 1013.025 630.998, 1002.032 637.673, 996.740 638.190 C 994.129 638.445, 993.400 639.073, 992.646 641.717 C 991.964 644.111, 990.881 645.214, 988.413 646.029 C 986.588 646.631, 984.819 647.996, 984.480 649.062 C 984.064 650.373, 982.957 651, 981.058 651 C 979.515 651, 976.338 651.675, 974 652.500 C 971.662 653.325, 967.218 654.011, 964.124 654.025 C 957.872 654.052, 948.431 656.845, 944.051 659.963 C 942.088 661.362, 939.618 662, 936.172 662 C 932.368 662, 930.469 662.570, 928.327 664.355 C 924.721 667.360, 920.019 668.722, 912.647 668.899 C 909.429 668.976, 905.971 669.481, 904.963 670.020 C 903.956 670.559, 901.958 671, 900.523 671 C 898.834 671, 896.255 672.532, 893.207 675.346 C 888.984 679.246, 878.776 685, 876.082 685 C 872.801 685, 866.870 688.580, 864.511 691.984 C 863.050 694.092, 860.650 696.253, 859.177 696.784 C 853.645 698.781, 839.370 702.948, 836 703.549 C 834.075 703.893, 829.008 705.309, 824.739 706.697 C 818.938 708.584, 816.455 709.957, 814.903 712.136 C 813.080 714.696, 812.260 715.032, 808.164 714.896 C 805.599 714.810, 800.630 715.361, 797.123 716.120 C 791.439 717.350, 790.224 718.070, 785.947 722.750 C 783.161 725.797, 780.292 728, 779.108 728 C 777.987 728, 775.542 729.341, 773.675 730.980 C 771.559 732.839, 768.253 734.396, 764.897 735.116 C 760.664 736.023, 758.594 737.203, 755.210 740.635 C 752.843 743.036, 750.295 745, 749.547 745 C 748.250 745, 739.101 749.141, 732.332 752.792 C 730.590 753.731, 728.195 755.738, 727.010 757.250 C 725.824 758.763, 724.282 760, 723.582 760 C 722.883 760, 721.453 760.948, 720.405 762.107 C 719.357 763.266, 716.884 764.861, 714.909 765.652 C 712.574 766.587, 710.551 768.454, 709.127 770.988 C 707.922 773.131, 706.061 775.163, 704.992 775.503 C 703.922 775.842, 701.787 777.648, 700.248 779.516 C 698.698 781.395, 694.892 784.042, 691.724 785.443 C 686.601 787.709, 686 788.289, 686 790.962 C 686 793.272, 685.317 794.302, 682.989 795.506 C 680.520 796.783, 680.088 797.503, 680.591 799.505 C 681.102 801.543, 680.608 802.299, 677.602 804.072 C 675.621 805.241, 674 806.781, 674 807.495 C 674 809.008, 667.997 814.479, 663.288 817.257 C 660.921 818.654, 659.621 820.466, 658.561 823.842 C 654.317 837.367, 651.089 843.169, 645.389 847.517 C 643.524 848.939, 641.334 851.387, 640.523 852.955 C 639.712 854.524, 637.350 856.850, 635.274 858.124 C 633.198 859.399, 628.913 863.068, 625.750 866.277 C 621.036 871.061, 620 872.722, 620 875.491 C 620 878.112, 618.663 880.552, 614.033 886.377 C 610.752 890.507, 607.773 895.057, 607.413 896.489 C 607.054 897.920, 604.369 901.156, 601.446 903.680 C 598.523 906.203, 595.561 909.670, 594.863 911.384 C 594.165 913.098, 592.335 916.255, 590.797 918.400 C 589.259 920.545, 588 923.253, 588 924.418 C 588 926.802, 584.800 931.861, 580.131 936.859 C 578.409 938.703, 577 940.769, 577 941.451 C 577 942.132, 576.146 943.462, 575.103 944.407 C 574.060 945.351, 572.723 948.043, 572.132 950.390 C 571.541 952.737, 570.210 955.747, 569.174 957.079 C 568.138 958.410, 566.740 961.189, 566.067 963.254 C 565.393 965.318, 562.178 970.196, 558.921 974.094 C 555.665 977.992, 553 981.536, 553 981.970 C 553 982.404, 550.953 985.395, 548.452 988.616 C 544.392 993.845, 543.971 994.867, 544.526 998.152 C 545.079 1001.425, 544.815 1002.077, 542.136 1004.057 C 539.149 1006.266, 537.745 1008.850, 536.533 1014.367 C 536.187 1015.943, 534.120 1018.834, 531.940 1020.791 C 529.761 1022.748, 526.438 1027.102, 524.556 1030.467 C 522.674 1033.832, 519.525 1037.730, 517.559 1039.129 C 515.592 1040.528, 511.458 1045.009, 508.371 1049.086 C 505.284 1053.164, 501.415 1058.033, 499.773 1059.906 C 498.131 1061.779, 496.343 1064.587, 495.800 1066.145 C 495.252 1067.714, 491.957 1071.249, 488.406 1074.075 C 484.883 1076.878, 482 1079.858, 482 1080.696 C 482 1081.535, 479.975 1084.217, 477.500 1086.657 C 474.630 1089.486, 473 1091.969, 473 1093.512 C 473 1094.842, 471.650 1097.468, 470 1099.347 C 468.261 1101.328, 467 1103.892, 467 1105.448 C 467 1108.704, 465.638 1111.428, 461.802 1115.843 C 459.937 1117.990, 458.969 1120.138, 459.099 1121.843 C 459.500 1127.103, 458.939 1128.864, 454.969 1134.808 C 450.902 1140.899, 448.736 1146.746, 447.488 1155 C 447.114 1157.475, 445.721 1161.389, 444.393 1163.698 C 441.414 1168.875, 438.030 1179.435, 438.013 1183.610 C 438.006 1185.320, 436.584 1189.464, 434.854 1192.819 C 432.748 1196.903, 431.610 1200.676, 431.413 1204.231 C 431.251 1207.152, 429.707 1213.358, 427.981 1218.021 C 425.682 1224.236, 424.997 1227.475, 425.418 1230.150 C 426.064 1234.258, 424.453 1238.527, 419.140 1246.791 C 416.334 1251.156, 415.890 1252.599, 416.443 1255.549 C 416.975 1258.384, 416.503 1260.195, 414.053 1264.718 C 412.374 1267.819, 411 1271.385, 411 1272.643 C 411 1273.901, 409.650 1276.468, 408 1278.347 C 404.421 1282.424, 404.101 1286.451, 407.159 1288.928 L 409.318 1290.676 405.659 1299.196 C 403.647 1303.882, 402 1309.145, 402 1310.893 C 402 1312.641, 401.261 1315.198, 400.358 1316.576 C 399.121 1318.465, 398.964 1319.626, 399.724 1321.293 C 400.477 1322.945, 400.120 1325.909, 398.316 1333.003 C 396.442 1340.369, 396.009 1344.164, 396.386 1349.916 C 396.781 1355.952, 396.509 1358.043, 394.924 1361.149 C 393.566 1363.811, 393.002 1366.863, 393.061 1371.233 C 393.107 1374.680, 393.160 1378.625, 393.178 1380 C 393.214 1382.660, 391.512 1393.054, 390.449 1396.664 C 389.983 1398.246, 390.375 1399.130, 391.906 1399.950 C 394.522 1401.350, 394.545 1403.057, 392.004 1407.226 C 390.906 1409.027, 390.006 1411.401, 390.004 1412.503 C 390.002 1413.605, 388.425 1416.722, 386.500 1419.429 C 382.550 1424.985, 382.290 1426.602, 384.678 1430.762 C 386.283 1433.559, 386.261 1433.841, 384.178 1437.211 C 381.621 1441.350, 381.416 1443.562, 383.515 1444.367 C 386.265 1445.423, 387.216 1449.866, 385.441 1453.361 C 384.564 1455.088, 382.772 1459.325, 381.458 1462.778 C 379.543 1467.810, 379.284 1469.528, 380.152 1471.435 C 381.429 1474.238, 379.320 1480.734, 374.791 1487.946 C 373.256 1490.391, 372 1492.842, 372 1493.392 C 372 1493.942, 370.899 1495.992, 369.553 1497.946 C 366.894 1501.808, 362.014 1515.926, 360.030 1525.500 C 359.346 1528.800, 358.383 1532.625, 357.890 1534 C 356.098 1538.999, 354 1548.167, 354 1550.996 C 354 1552.590, 352.879 1556.002, 351.509 1558.579 C 349.666 1562.045, 349.158 1564.204, 349.554 1566.882 C 349.975 1569.724, 349.360 1571.894, 346.686 1577 C 344.813 1580.575, 341.467 1586.954, 339.249 1591.176 C 336.017 1597.331, 335.092 1600.305, 334.584 1606.176 C 333.457 1619.201, 331.839 1629.441, 330.504 1632 C 329.787 1633.375, 328.883 1637.482, 328.496 1641.127 C 327.943 1646.346, 328.126 1648.263, 329.361 1650.147 C 330.855 1652.427, 331.119 1657.842, 330.795 1679.500 C 330.762 1681.700, 330.843 1685.075, 330.976 1687 C 331.108 1688.925, 330.663 1694.100, 329.986 1698.500 C 329.309 1702.900, 328.807 1711.277, 328.872 1717.115 C 328.975 1726.384, 329.300 1728.286, 331.436 1732.115 C 333.693 1736.162, 333.864 1737.407, 333.644 1748.274 C 333.419 1759.413, 333.268 1760.186, 330.852 1762.603 C 328.071 1765.384, 322.979 1766.427, 304.879 1767.926 C 299.588 1768.364, 294.806 1769.002, 294.252 1769.344 C 292.560 1770.390, 272.744 1773.994, 268.667 1773.997 C 258.248 1774.005, 232.798 1783.887, 227.752 1789.883 C 224.741 1793.462, 214.354 1798.600, 208.113 1799.598 C 205.681 1799.987, 201.049 1802.133, 197.236 1804.638 C 193.583 1807.037, 189.623 1809, 188.437 1809 C 184.874 1809, 173.639 1817.119, 172.500 1820.517 C 171.950 1822.158, 170.262 1824.717, 168.750 1826.205 C 167.238 1827.692, 166 1829.347, 166 1829.882 C 166 1831.340, 155.884 1835.839, 149.822 1837.077 C 146.895 1837.675, 142.250 1839.672, 139.500 1841.514 C 136.750 1843.356, 133.325 1845.152, 131.890 1845.505 C 130.346 1845.884, 126.957 1848.934, 123.595 1852.970 C 120.469 1856.723, 115.344 1862.202, 112.206 1865.147 C 109.068 1868.091, 105.974 1871.704, 105.330 1873.175 C 104.687 1874.646, 103.003 1876.607, 101.589 1877.534 C 100.094 1878.513, 98.590 1880.810, 97.994 1883.022 C 97.199 1885.975, 95.647 1887.797, 91.059 1891.163 C 87.809 1893.548, 83.790 1896.253, 82.128 1897.173 C 78.631 1899.109, 73 1909.364, 73 1913.797 C 73 1917.090, 70.384 1919.829, 64.345 1922.859 C 60.299 1924.889, 56 1929.233, 56 1931.290 C 56 1931.852, 54.875 1933.786, 53.500 1935.589 C 52.125 1937.392, 51 1939.366, 51 1939.976 C 51 1940.586, 48.997 1943.227, 46.550 1945.843 C 43.572 1949.027, 41.781 1952.022, 41.135 1954.896 C 40.604 1957.258, 39.288 1960.160, 38.210 1961.345 C 37.132 1962.530, 35.471 1965.975, 34.519 1969 C 33.566 1972.025, 31.823 1976.076, 30.644 1978.003 C 29.465 1979.929, 27.639 1983.196, 26.587 1985.263 C 25.534 1987.330, 23.172 1990.776, 21.337 1992.920 C 19.220 1995.392, 18 1997.877, 18 1999.713 C 18 2001.306, 16.587 2004.834, 14.859 2007.554 C 13.131 2010.274, 10.711 2015.457, 9.480 2019.070 C 8.249 2022.684, 6.652 2026.585, 5.931 2027.739 C 4.863 2029.449, 4.858 2030.124, 5.904 2031.384 C 6.749 2032.403, 6.965 2034.250, 6.535 2036.794 C 6.049 2039.671, 6.280 2040.988, 7.441 2041.951 C 9.529 2043.684, 9.407 2046.618, 7.114 2049.846 C 3.569 2054.836, 1.845 2060.194, 2.896 2062.957 C 3.428 2064.356, 4.406 2070.225, 5.070 2076 C 6.169 2085.568, 6.682 2087.210, 10.848 2094.500 C 13.362 2098.900, 16.669 2103.972, 18.197 2105.770 C 19.724 2107.569, 23.160 2113.644, 25.832 2119.270 C 31.057 2130.274, 38.230 2140.548, 43.484 2144.556 C 45.280 2145.926, 49.436 2147.954, 52.719 2149.063 C 60.359 2151.643, 67.805 2158.214, 77.459 2170.896 C 85.922 2182.015, 87.254 2183.292, 100 2192.500 C 105.225 2196.275, 110.631 2200.389, 112.014 2201.643 C 113.397 2202.897, 116.432 2204.594, 118.758 2205.415 C 125.862 2207.921, 141.786 2218.118, 149.857 2225.329 C 156.010 2230.827, 160.424 2233.586, 172.500 2239.483 C 190.347 2248.199, 195.157 2249.656, 209 2250.534 C 214.775 2250.900, 221.750 2251.627, 224.500 2252.149 C 227.250 2252.672, 232.650 2253.469, 236.500 2253.921 C 242.540 2254.631, 246.447 2256.198, 265 2265.354 C 282.922 2274.198, 287.724 2276.149, 293.852 2277.075 C 298.689 2277.806, 302.624 2277.864, 305.352 2277.246 C 312.709 2275.579, 337.368 2276.499, 350 2278.911 C 366.176 2282.001, 370.932 2283.275, 384 2288.020 C 398.734 2293.369, 405.751 2295.160, 409.500 2294.526 C 411.150 2294.248, 416.591 2293.600, 421.591 2293.087 C 426.590 2292.574, 433.790 2291.236, 437.591 2290.114 C 441.391 2288.992, 449.900 2287.571, 456.500 2286.957 C 463.100 2286.343, 472.550 2284.807, 477.500 2283.545 C 482.450 2282.282, 489.791 2280.938, 493.814 2280.558 C 497.836 2280.177, 502.955 2279.221, 505.189 2278.433 C 507.424 2277.645, 511.557 2276.995, 514.376 2276.989 C 519.294 2276.979, 526.898 2275.196, 530.696 2273.162 C 531.688 2272.631, 535.425 2269.855, 539 2266.994 C 542.575 2264.132, 547.750 2260.658, 550.500 2259.273 C 556.259 2256.372, 574.957 2244.830, 579.734 2241.226 C 581.513 2239.884, 583.920 2237.247, 585.082 2235.367 C 588.182 2230.351, 589.632 2229.176, 594.258 2227.931 C 596.550 2227.313, 601.817 2225.112, 605.963 2223.039 C 610.108 2220.966, 617.100 2218.029, 621.500 2216.513 C 625.900 2214.997, 631.193 2212.622, 633.262 2211.234 C 636.741 2208.901, 647.020 2197.687, 651.357 2191.493 C 653.802 2188, 658.823 2185.008, 662.247 2185.004 C 663.950 2185.001, 666.420 2186.270, 668.747 2188.342 C 672.687 2191.851, 682.766 2196.984, 689.517 2198.919 C 691.708 2199.548, 698.071 2200.338, 703.657 2200.676 C 711.655 2201.160, 714.884 2200.941, 718.845 2199.645 C 725.906 2197.336, 729.192 2197.573, 736.879 2200.947 C 740.864 2202.696, 747.831 2204.568, 754.020 2205.551 C 763.750 2207.098, 765.182 2207.097, 775.473 2205.530 C 783.772 2204.267, 789.840 2202.531, 800 2198.512 L 813.500 2193.173 822.547 2193.714 C 831.268 2194.235, 832.024 2194.103, 843.547 2190.047 C 861.202 2183.832, 860.786 2183.929, 862.499 2185.642 C 864.496 2187.639, 864.415 2189.192, 861.579 2203.385 C 860.247 2210.048, 858.871 2219.325, 858.521 2224 C 857.996 2231.004, 857.235 2233.820, 854.192 2240 L 850.500 2247.500 850.733 2260.318 C 850.883 2268.567, 851.507 2274.728, 852.483 2277.603 C 853.317 2280.060, 854 2283.674, 854 2285.634 C 854 2287.594, 854.635 2290.616, 855.410 2292.349 C 856.186 2294.082, 857.199 2296.735, 857.660 2298.245 C 859.024 2302.703, 865.188 2309.800, 869.605 2311.996 C 871.862 2313.119, 875.912 2314.668, 878.605 2315.439 C 887.797 2318.070, 903.677 2323.803, 908.592 2326.264 C 917.011 2330.480, 928.847 2333.768, 950.779 2337.981 C 960.150 2339.781, 961.697 2339.832, 968.279 2338.561 C 972.251 2337.795, 976.767 2336.680, 978.315 2336.084 C 982.796 2334.359, 988.611 2334.814, 994.780 2337.372 C 1000.101 2339.578, 1001.198 2339.684, 1010.500 2338.902 C 1023.875 2337.776, 1025.009 2337.436, 1030.491 2332.906 C 1034.587 2329.521, 1035.882 2329, 1040.193 2329 C 1044.416 2329, 1047.159 2327.951, 1058.334 2322.066 C 1065.575 2318.253, 1074.083 2314.172, 1077.239 2312.998 C 1088.393 2308.851, 1106.941 2288.010, 1110.472 2275.658 C 1111.702 2271.355, 1111.826 2265.522, 1111.223 2240.465 L 1110.500 2210.431 1104.853 2198.965 C 1098.434 2185.932, 1097.013 2181.531, 1097.006 2174.644 C 1096.999 2168.953, 1095.164 2161.357, 1090.427 2147.412 C 1088.542 2141.864, 1087 2136.216, 1087 2134.861 C 1087 2133.506, 1088.123 2128.595, 1089.497 2123.949 C 1093.702 2109.715, 1093.779 2103.130, 1089.996 2081.047 C 1088.595 2072.866, 1090.304 2061.920, 1093.578 2058.115 C 1095.712 2055.634, 1095.933 2055.595, 1101.138 2056.772 C 1104.087 2057.439, 1110.325 2058.705, 1115 2059.586 C 1119.675 2060.466, 1128.450 2062.711, 1134.500 2064.575 C 1140.550 2066.439, 1146.625 2068.188, 1148 2068.461 C 1181.827 2075.196, 1190.419 2077.658, 1204 2084.503 C 1213.799 2089.442, 1222.949 2092.507, 1233.744 2094.465 C 1238.560 2095.339, 1245.731 2096.791, 1249.679 2097.693 C 1256.084 2099.156, 1258.458 2099.191, 1271.679 2098.018 C 1298.255 2095.661, 1299.350 2095.649, 1301.805 2097.676 C 1303.036 2098.692, 1307.932 2108.418, 1312.859 2119.633 C 1318.676 2132.874, 1323.246 2141.775, 1326.209 2145.633 C 1328.687 2148.860, 1332.224 2154.200, 1334.068 2157.500 C 1339.277 2166.823, 1346.425 2177.168, 1350.673 2181.530 C 1359.069 2190.154, 1371.837 2198.985, 1385.197 2205.409 C 1402.043 2213.508, 1408.549 2215.560, 1423.500 2217.490 C 1430.100 2218.342, 1437.750 2219.454, 1440.500 2219.960 C 1448.053 2221.351, 1466.518 2221.120, 1485.500 2219.398 C 1494.850 2218.549, 1512.175 2217.501, 1524 2217.068 C 1538.787 2216.526, 1547.310 2215.768, 1551.299 2214.640 C 1554.488 2213.738, 1559.039 2213, 1561.412 2213 C 1567.971 2213, 1576.208 2211.195, 1579 2209.146 C 1585.093 2204.676, 1589.417 2192.337, 1594.997 2163.500 L 1596.158 2157.500 1586.448 2130 C 1581.108 2114.875, 1576.339 2101.083, 1575.851 2099.351 C 1575.362 2097.619, 1573.058 2094.250, 1570.731 2091.864 C 1568.404 2089.478, 1566.044 2086.635, 1565.487 2085.546 C 1564.028 2082.695, 1553.785 2074.688, 1547.169 2071.226 C 1540.753 2067.870, 1519.294 2061.529, 1511 2060.539 C 1498.942 2059.100, 1497.347 2058.782, 1493.321 2057.012 C 1488.027 2054.685, 1486.163 2051.143, 1485.002 2041.205 C 1484.041 2032.986, 1482.471 2027.243, 1479.202 2020 C 1478.020 2017.381, 1476.469 2010.067, 1475.489 2002.500 C 1474.564 1995.350, 1472.753 1985, 1471.465 1979.500 C 1469.258 1970.077, 1468.645 1966.716, 1465.995 1949.500 C 1464.699 1941.085, 1464.399 1923.237, 1465.449 1917 C 1465.865 1914.525, 1467.103 1909.800, 1468.199 1906.500 C 1469.486 1902.624, 1470.182 1897.885, 1470.164 1893.114 C 1470.148 1889.034, 1471.011 1882.214, 1472.090 1877.877 C 1473.165 1873.558, 1473.764 1868.908, 1473.422 1867.544 C 1472.747 1864.856, 1474.378 1856.460, 1476.586 1851.255 C 1477.458 1849.200, 1477.742 1846.395, 1477.360 1843.609 C 1476.875 1840.073, 1477.291 1838.079, 1479.472 1833.468 C 1481.589 1828.993, 1482.037 1826.932, 1481.508 1824.114 C 1480.739 1820.024, 1480.469 1815.921, 1479.524 1794 C 1478.690 1774.618, 1478.672 1775.054, 1480.573 1767.717 C 1481.888 1762.645, 1481.958 1760.577, 1480.990 1755.448 C 1480.012 1750.264, 1480.080 1748.532, 1481.413 1744.604 C 1482.477 1741.471, 1483 1736.360, 1483 1729.100 C 1483 1720.057, 1483.307 1717.876, 1484.862 1715.885 C 1487.553 1712.440, 1488.361 1709.393, 1488.678 1701.500 C 1489.280 1686.506, 1489.909 1680.038, 1490.955 1678.083 C 1491.613 1676.854, 1491.834 1673.126, 1491.514 1668.667 C 1491.131 1663.338, 1491.403 1660.281, 1492.492 1657.675 C 1493.321 1655.689, 1494 1652.059, 1494 1649.609 C 1494 1646.249, 1494.651 1644.380, 1496.647 1642.008 C 1499.883 1638.162, 1500.813 1634.095, 1502.136 1618 C 1503.028 1607.148, 1503.507 1604.997, 1505.765 1601.682 C 1507.818 1598.668, 1508.487 1596.216, 1508.941 1590.028 C 1509.321 1584.857, 1510.075 1581.563, 1511.155 1580.345 C 1512.376 1578.971, 1512.950 1575.583, 1513.407 1567.064 C 1513.893 1558.017, 1514.459 1554.888, 1516.114 1552.083 C 1517.834 1549.166, 1518.096 1547.557, 1517.585 1543.018 C 1517.037 1538.152, 1517.320 1536.813, 1519.982 1531.690 C 1522.857 1526.155, 1523 1525.303, 1523 1513.675 C 1523 1503.262, 1523.302 1500.906, 1525.060 1497.627 C 1526.759 1494.456, 1526.934 1493.251, 1526.060 1490.742 C 1525.477 1489.070, 1525 1486.698, 1525 1485.472 C 1525 1483.216, 1528.438 1474.584, 1532.037 1467.802 C 1533.117 1465.768, 1534 1462.933, 1534 1461.502 C 1534 1459.882, 1535.320 1457.541, 1537.500 1455.297 C 1539.425 1453.315, 1541 1450.844, 1541 1449.806 C 1541 1448.768, 1542.800 1444.580, 1545 1440.500 C 1547.200 1436.420, 1549 1432.373, 1549 1431.507 C 1549 1430.641, 1550.575 1429.003, 1552.500 1427.867 C 1554.425 1426.732, 1556 1425.596, 1556 1425.344 C 1556 1425.092, 1555.499 1422.896, 1554.886 1420.463 C 1553.436 1414.705, 1554.251 1411.890, 1557.972 1409.797 C 1560.318 1408.477, 1561 1407.400, 1561 1405.014 C 1561 1400.044, 1563.427 1395.480, 1566.818 1394.075 C 1569.786 1392.846, 1569.864 1392.650, 1569.298 1387.870 C 1568.801 1383.675, 1569.046 1382.580, 1570.925 1380.579 C 1572.663 1378.730, 1573.262 1376.581, 1573.717 1370.563 C 1574.267 1363.293, 1574.478 1362.752, 1577.851 1359.972 L 1581.405 1357.042 1581.119 1348.014 C 1580.851 1339.558, 1580.997 1338.792, 1583.417 1335.917 C 1585.438 1333.515, 1586 1331.762, 1586 1327.867 C 1586 1324.342, 1586.878 1321.117, 1589.007 1316.827 C 1590.661 1313.494, 1591.916 1309.486, 1591.797 1307.921 C 1591.661 1306.134, 1592.402 1304.201, 1593.790 1302.723 C 1595.351 1301.061, 1596 1299.129, 1596 1296.138 C 1596 1292.837, 1596.587 1291.360, 1598.665 1289.435 C 1601.515 1286.793, 1601.475 1285.701, 1598.129 1275.108 C 1597.119 1271.909, 1597.263 1271.529, 1600.671 1268.407 C 1603.936 1265.417, 1604.185 1264.829, 1603.260 1262.299 C 1601.703 1258.039, 1602.180 1231.693, 1603.851 1229.680 C 1604.834 1228.495, 1605.020 1226.477, 1604.532 1222.274 C 1603.949 1217.255, 1604.257 1215.510, 1606.875 1208.971 L 1609.889 1201.445 1608.308 1195.169 L 1606.727 1188.894 1609.204 1186.197 C 1612.255 1182.875, 1613.593 1179.395, 1615.049 1171 C 1615.668 1167.425, 1616.661 1163.914, 1617.254 1163.197 C 1617.848 1162.480, 1618.684 1160.005, 1619.112 1157.697 C 1620.974 1147.660, 1621.869 1144.764, 1623.746 1142.697 C 1625.039 1141.274, 1625.936 1138.496, 1626.292 1134.812 C 1626.624 1131.384, 1627.841 1127.412, 1629.356 1124.812 C 1630.738 1122.441, 1633.058 1116.900, 1634.510 1112.500 C 1635.963 1108.100, 1638.170 1102.925, 1639.416 1101 C 1640.916 1098.681, 1641.918 1095.137, 1642.385 1090.500 C 1643.776 1076.690, 1644.641 1071.840, 1645.846 1071.095 C 1646.520 1070.679, 1647.347 1068.575, 1647.685 1066.419 C 1648.022 1064.264, 1649.356 1060.082, 1650.649 1057.126 C 1651.942 1054.170, 1653 1050.660, 1653 1049.326 C 1653 1047.992, 1653.656 1045.632, 1654.458 1044.081 C 1655.356 1042.344, 1655.699 1039.918, 1655.350 1037.767 C 1655.038 1035.846, 1655.312 1033.286, 1655.959 1032.077 C 1657.621 1028.971, 1659.115 1017.320, 1659.450 1004.858 C 1659.661 996.981, 1660.161 993.609, 1661.372 991.879 C 1662.587 990.145, 1662.850 988.350, 1662.394 984.912 C 1661.995 981.904, 1662.238 979.443, 1663.086 977.890 C 1663.805 976.576, 1664.497 972.871, 1664.625 969.657 C 1664.769 966.031, 1665.454 963.156, 1666.429 962.079 C 1667.293 961.124, 1668 959.383, 1668 958.210 C 1668 957.037, 1668.828 955.273, 1669.840 954.289 C 1672.512 951.691, 1673.055 949.456, 1671.853 946.007 C 1671.060 943.734, 1671.103 942.581, 1672.022 941.474 C 1672.815 940.518, 1673.026 938.566, 1672.615 935.995 C 1672.094 932.736, 1672.347 931.684, 1673.988 930.278 C 1675.095 929.331, 1676 927.833, 1676 926.949 C 1676 926.066, 1677.383 923.254, 1679.074 920.702 C 1682.107 916.123, 1682.125 916.021, 1680.406 913.111 C 1678.831 910.444, 1678.810 909.938, 1680.185 907.831 C 1682.405 904.428, 1682.538 892.750, 1680.394 889.479 C 1678.794 887.037, 1678.821 886.820, 1680.999 884.501 C 1683.207 882.151, 1683.242 881.813, 1682.158 873.411 C 1681.543 868.645, 1681.261 864.386, 1681.532 863.948 C 1681.804 863.509, 1681.627 862.104, 1681.141 860.825 C 1678.060 852.731, 1677.869 851.153, 1679.573 847.858 C 1681.732 843.684, 1681.036 834.926, 1678.113 829.472 C 1676.609 826.665, 1676.176 824.581, 1676.612 822.252 C 1676.991 820.233, 1676.744 818.396, 1675.966 817.459 C 1674.995 816.289, 1674.969 815.363, 1675.853 813.423 C 1676.484 812.039, 1677 807.793, 1677 803.988 C 1677 798.094, 1677.296 796.912, 1679 796 C 1681.391 794.720, 1681.497 793.304, 1679.503 789.307 C 1677.455 785.202, 1675.795 775.967, 1676.860 774.605 C 1677.336 773.997, 1678.042 772.173, 1678.431 770.551 C 1678.820 768.928, 1680.274 766.549, 1681.662 765.263 C 1683.421 763.632, 1683.955 762.406, 1683.426 761.212 C 1683.009 760.270, 1682.630 758.175, 1682.584 756.556 C 1682.508 753.909, 1682.902 753.527, 1686.483 752.773 C 1691.847 751.644, 1692.456 750.783, 1690.528 747.055 C 1689.625 745.308, 1689.024 742.252, 1689.193 740.264 C 1689.459 737.129, 1690.087 736.338, 1693.907 734.324 C 1696.331 733.046, 1699.192 732, 1700.264 732 C 1701.729 732, 1702.035 731.565, 1701.492 730.250 C 1696.138 717.264, 1696.278 713.761, 1702.211 712.227 C 1705.437 711.393, 1705.515 711.240, 1706.284 704.234 C 1707.055 697.218, 1711.232 686, 1713.073 686 C 1713.583 686, 1714 684.660, 1714 683.023 C 1714 680.951, 1714.760 679.548, 1716.500 678.408 C 1718.355 677.193, 1719 675.893, 1719 673.371 C 1719 671.502, 1719.390 669.191, 1719.866 668.236 C 1721.782 664.394, 1723.310 659.276, 1723.744 655.250 C 1724.254 650.511, 1724.552 650.285, 1727.171 652.655 C 1729.435 654.704, 1729.557 653.240, 1727.380 650.133 C 1725.470 647.405, 1726.234 645.098, 1730.779 639.873 C 1732.393 638.018, 1734.250 634.852, 1734.905 632.838 C 1735.561 630.825, 1736.742 628.929, 1737.532 628.626 C 1738.321 628.323, 1738.719 627.430, 1738.416 626.642 C 1738.105 625.833, 1738.831 624.531, 1740.082 623.655 C 1742.228 622.152, 1742.243 622.020, 1740.564 619.457 C 1739.410 617.696, 1739.053 615.925, 1739.496 614.161 C 1740.498 610.167, 1741.743 609.161, 1746.582 608.435 C 1751.652 607.675, 1751.940 606.763, 1748.959 600.919 L 1746.918 596.919 1749.182 592.890 C 1750.738 590.121, 1752.315 588.687, 1754.223 588.305 C 1757.531 587.644, 1757.629 587.069, 1755 583.727 C 1752.437 580.469, 1752.482 579.836, 1755.470 577.028 C 1758.918 573.789, 1765.677 560.166, 1765.781 556.248 C 1765.911 551.304, 1766.957 548.907, 1770.164 546.209 C 1773.232 543.627, 1777.322 536.655, 1776.343 535.676 C 1776.028 535.362, 1776.771 533.039, 1777.993 530.515 C 1779.214 527.991, 1779.983 525.042, 1779.700 523.961 C 1779.393 522.786, 1779.816 521.643, 1780.753 521.118 C 1782.119 520.354, 1782.066 520.105, 1780.336 519.180 C 1779.245 518.596, 1777.832 516.382, 1777.196 514.260 C 1775.836 509.722, 1776.464 496.846, 1778.199 493.683 C 1779.336 491.608, 1780.415 474.739, 1780.155 463.082 C 1780.058 458.728, 1780.423 457.392, 1782.017 456.276 C 1784.058 454.846, 1784.725 450.566, 1783.066 449.541 C 1781.318 448.460, 1778.821 437.770, 1779.487 434.220 C 1780.201 430.414, 1778.808 423.125, 1775.908 415.487 C 1773.881 410.146, 1772.862 400.329, 1773.038 387.826 C 1773.115 382.319, 1772.692 379.460, 1771.540 377.702 C 1770.228 375.700, 1770.121 374.421, 1770.954 370.705 C 1771.865 366.641, 1771.710 365.697, 1769.499 361.829 C 1765.931 355.587, 1766.236 353.538, 1771.250 350.089 C 1773.588 348.481, 1776.738 345.897, 1778.251 344.347 C 1780.592 341.948, 1780.900 341.004, 1780.314 338.014 C 1779.528 333.995, 1779.528 333.767, 1780.310 325 C 1780.629 321.425, 1781.563 316.306, 1782.385 313.624 C 1783.207 310.942, 1784.388 302.617, 1785.009 295.124 C 1785.630 287.631, 1786.787 279.454, 1787.581 276.954 C 1788.376 274.454, 1789.066 268.379, 1789.117 263.454 C 1789.206 254.750, 1790.830 246.632, 1795.008 234 C 1797.792 225.582, 1804.845 208.840, 1806.351 207.074 C 1807.089 206.208, 1810.187 200.261, 1813.235 193.859 C 1822.011 175.425, 1829.745 148.701, 1831.137 132 C 1831.619 126.225, 1832.457 118.125, 1832.999 114 C 1836.136 90.147, 1836.735 75.619, 1835.689 48.704 C 1835.368 40.453, 1834.951 38.424, 1833.038 35.838 C 1831.284 33.465, 1830.885 31.893, 1831.283 28.925 C 1831.748 25.461, 1831.465 24.829, 1828.399 22.491 C 1826.530 21.065, 1825 19.042, 1825 17.996 C 1825 16.950, 1824.478 14.948, 1823.839 13.547 C 1822.953 11.602, 1822.962 10.379, 1823.877 8.371 C 1824.536 6.925, 1824.946 5.628, 1824.787 5.488 C 1824.629 5.349, 1822.475 6.142, 1820 7.251 M 1793.550 524.902 C 1794.072 525.398, 1796.525 526.490, 1799 527.327 C 1801.475 528.165, 1809.532 531.365, 1816.905 534.437 C 1830.786 540.223, 1836.563 541.389, 1824.399 535.950 C 1820.605 534.253, 1815.475 531.938, 1813 530.805 C 1807.895 528.468, 1795.173 524, 1793.625 524 C 1792.980 524, 1792.953 524.335, 1793.550 524.902 M 1832.550 540.888 C 1833.072 541.376, 1834.625 542.074, 1836 542.439 C 1838.403 543.078, 1838.424 543.043, 1836.559 541.552 C 1834.513 539.916, 1830.863 539.312, 1832.550 540.888 M 1840.083 544.371 C 1840.313 544.574, 1844.775 546.983, 1850 549.722 C 1855.225 552.462, 1862.749 556.570, 1866.719 558.852 C 1870.690 561.133, 1874.134 563, 1874.373 563 C 1874.612 563, 1877.439 564.468, 1880.654 566.263 C 1888.352 570.560, 1892.287 572.274, 1891.488 570.981 C 1891.136 570.412, 1887.395 568.169, 1883.174 565.996 C 1878.953 563.824, 1873.067 560.659, 1870.094 558.964 C 1857.613 551.849, 1837.488 542.063, 1840.083 544.371 M 1893 572.456 C 1893 572.922, 1902.545 578.622, 1911.500 583.504 C 1917.679 586.872, 1926.748 592.778, 1929.746 595.387 C 1930.981 596.462, 1932.240 597.093, 1932.543 596.790 C 1933.643 595.690, 1919.167 586.194, 1900.612 575.843 C 1893.574 571.917, 1893 571.661, 1893 572.456 M 1783.800 611.750 C 1793.409 621.513, 1803.975 632.538, 1807.281 636.250 C 1810.586 639.962, 1813.725 643, 1814.256 643 C 1814.786 643, 1811.017 638.388, 1805.881 632.750 C 1794.181 619.909, 1768.301 594, 1767.174 594 C 1766.710 594, 1774.192 601.987, 1783.800 611.750 M 1759 616.351 C 1759 617.094, 1761.177 620.581, 1763.837 624.101 C 1773.952 637.482, 1773.332 639.047, 1760.954 631.387 C 1752.230 625.988, 1751 625.426, 1751 626.835 C 1751 627.412, 1756.466 630.947, 1763.146 634.692 C 1776.838 642.367, 1776.893 642.430, 1786.429 661.500 C 1792.398 673.438, 1793.703 677, 1792.108 677 C 1791.543 677, 1789.375 675.118, 1787.290 672.818 C 1767.349 650.813, 1749.957 634, 1747.136 634 C 1746.517 634, 1749.495 637.034, 1753.755 640.743 C 1765.814 651.242, 1779.075 665.007, 1786.266 674.490 C 1786.688 675.045, 1789.388 678.144, 1792.266 681.377 C 1797.366 687.103, 1802.987 694.843, 1802.996 696.151 C 1802.998 696.509, 1804.732 700.559, 1806.850 705.151 C 1808.967 709.743, 1812.159 716.875, 1813.943 721 C 1819.304 733.395, 1822.183 739.150, 1822.743 738.591 C 1823.233 738.100, 1821.884 734.565, 1816.795 723 C 1814.277 717.278, 1810.188 708.306, 1808.481 704.759 C 1807.009 701.699, 1808.025 700.396, 1810.729 701.878 C 1813.426 703.355, 1850.816 741.949, 1856.500 749.123 C 1867.267 762.713, 1871.766 768.728, 1875.329 774.299 L 1879.037 780.097 1879.049 795.299 C 1879.056 803.659, 1878.598 812.924, 1878.031 815.886 C 1876.592 823.407, 1876.909 826.533, 1878.500 820.500 C 1879.225 817.750, 1880.130 809.313, 1880.511 801.750 C 1881.032 791.431, 1881.532 788, 1882.515 788 C 1883.771 788, 1895.511 804.520, 1905 819.637 C 1911.824 830.508, 1922.236 846, 1922.718 846 C 1923.411 846, 1916.895 834.809, 1913.984 831 C 1912.513 829.075, 1910.093 825.475, 1908.607 823 C 1907.120 820.525, 1902.563 813.325, 1898.480 807 C 1884.062 784.666, 1880.318 778.484, 1880.309 777 C 1880.294 774.514, 1877.980 760.903, 1876.484 754.500 C 1875.713 751.200, 1874.873 747.290, 1874.618 745.811 C 1873.440 738.977, 1862.471 711.195, 1861.382 712.285 C 1860.938 712.728, 1863.986 720.622, 1868.028 729.500 C 1869.201 732.076, 1876.796 763.558, 1877.196 767.500 C 1877.674 772.217, 1875.789 771.819, 1872.194 766.443 C 1866.604 758.084, 1842.077 730.500, 1822.005 710 L 1802.913 690.500 1796.917 678 C 1788.070 659.558, 1786.723 656.876, 1784.250 652.773 C 1782.007 649.052, 1781.326 645.985, 1782.750 646.016 C 1783.162 646.025, 1785.194 647.038, 1787.263 648.266 C 1789.333 649.495, 1798.783 654.957, 1808.263 660.406 C 1817.744 665.854, 1827.381 671.591, 1829.680 673.156 C 1831.979 674.720, 1834.136 676, 1834.472 676 C 1835.385 676, 1837.846 678.030, 1842.411 682.548 C 1844.660 684.775, 1849.628 692.072, 1853.451 698.763 C 1857.275 705.455, 1860.567 710.766, 1860.769 710.565 C 1861.291 710.042, 1856.556 700.907, 1852.370 694.363 C 1847.508 686.764, 1848.953 685.585, 1856.939 690.636 C 1868.437 697.907, 1870.896 699.508, 1880.692 706.108 C 1891.865 713.635, 1895.600 715.780, 1894.536 714.058 C 1893.837 712.927, 1847.776 682.235, 1845.423 681.332 C 1844.751 681.074, 1841.480 676.731, 1838.154 671.682 C 1834.828 666.632, 1829.785 660.025, 1826.946 657 C 1823.124 652.926, 1822.478 652.477, 1824.457 655.267 C 1831.305 664.925, 1836 672.383, 1836 673.601 C 1836 675.081, 1833.472 674.501, 1831 672.453 C 1829.414 671.139, 1800.495 654.049, 1785.793 645.737 C 1778.107 641.392, 1776.717 640.160, 1773.938 635.235 C 1770.964 629.967, 1760.196 615, 1759.379 615 C 1759.170 615, 1759 615.608, 1759 616.351 M 1818.004 647.500 C 1819.377 649.150, 1820.612 650.688, 1820.750 650.917 C 1820.888 651.146, 1821.220 651.113, 1821.490 650.844 C 1821.759 650.575, 1820.523 649.037, 1818.743 647.427 L 1815.507 644.500 1818.004 647.500 M 1732.029 656.773 C 1732.013 657.474, 1736.618 664.449, 1742.263 672.273 C 1747.907 680.098, 1753.981 688.525, 1755.760 691 C 1762.150 699.888, 1790.074 742.059, 1791.024 744.256 C 1791.558 745.490, 1792.455 747.175, 1793.018 748 C 1798.788 756.462, 1810.245 782.114, 1811.554 789.500 C 1811.944 791.700, 1812.528 793.950, 1812.852 794.500 C 1813.177 795.050, 1813.571 796.400, 1813.728 797.500 C 1813.885 798.600, 1814.448 801.750, 1814.979 804.500 C 1818.022 820.250, 1817.643 832.463, 1813.351 857 C 1810.924 870.873, 1800.839 903.004, 1797.830 906.450 C 1796.666 907.783, 1796.796 909.235, 1798.042 908.819 C 1799.114 908.462, 1804.975 894.988, 1807.533 887 C 1813.479 868.430, 1818.569 842.078, 1818.888 828.221 C 1819.388 806.431, 1812.231 777.333, 1801.740 758.500 C 1799.921 755.236, 1785.002 730.911, 1781.500 725.500 C 1767.526 703.908, 1763.030 697.256, 1751.134 680.563 C 1737.083 660.847, 1732.079 654.616, 1732.029 656.773 M 1725 685.652 C 1725 686.010, 1726.966 689.723, 1729.369 693.902 C 1731.772 698.081, 1734.898 703.799, 1736.315 706.609 C 1740.618 715.143, 1749.196 741.716, 1752.097 755.500 C 1753.602 762.650, 1754.864 766.925, 1754.902 765 C 1754.940 763.075, 1754.347 758.800, 1753.585 755.500 C 1752.823 752.200, 1751.872 747.025, 1751.473 744 C 1749.939 732.380, 1737.043 700.873, 1728.656 688.257 C 1726.668 685.267, 1725 684.078, 1725 685.652 M 1721.059 699 C 1721.059 700.375, 1723.088 705.325, 1725.569 710 C 1729.115 716.680, 1741 744.771, 1741 746.470 C 1741 747.693, 1745.139 756.194, 1745.540 755.794 C 1746.746 754.587, 1737.270 728.687, 1731.091 716.306 C 1729.391 712.899, 1727.994 709.749, 1727.987 709.306 C 1727.981 708.863, 1726.419 705.800, 1724.518 702.500 C 1721.762 697.718, 1721.060 697.007, 1721.059 699 M 1709.744 721.605 C 1709.428 722.117, 1710.286 724.328, 1711.651 726.518 C 1713.016 728.708, 1715.900 734.050, 1718.059 738.389 C 1720.219 742.728, 1722.370 746.778, 1722.840 747.389 C 1724.048 748.960, 1729.591 766.229, 1731.428 774.145 C 1733.272 782.094, 1734.854 786.479, 1735.606 785.727 C 1737.002 784.331, 1729.297 757.646, 1725.319 750.101 C 1724.044 747.682, 1723 745.085, 1723 744.331 C 1723 742.493, 1714.735 726.125, 1712.274 723.088 C 1711.198 721.761, 1710.060 721.094, 1709.744 721.605 M 1908.918 724.344 C 1910.349 726.126, 1914 728.468, 1914 727.603 C 1914 727.346, 1912.537 726.111, 1910.750 724.857 C 1908.444 723.240, 1907.912 723.091, 1908.918 724.344 M 1918.924 732.330 C 1921.472 735.136, 1922.020 735.481, 1921.969 734.250 C 1921.951 733.837, 1920.714 732.636, 1919.219 731.580 L 1916.500 729.661 1918.924 732.330 M 1702.439 733.297 C 1702.166 734.011, 1703.358 737.719, 1705.090 741.538 C 1710.547 753.573, 1714.611 767.541, 1716.573 781 C 1716.774 782.375, 1717.385 785.300, 1717.932 787.500 C 1718.829 791.105, 1718.877 790.889, 1718.421 785.312 C 1717.222 770.655, 1712.096 750.249, 1706.348 737.252 C 1703.930 731.786, 1703.274 731.122, 1702.439 733.297 M 1927.654 739.750 C 1934.335 746.193, 1937.371 748.641, 1936.377 746.783 C 1935.455 745.061, 1925.307 736, 1924.301 736 C 1924.006 736, 1925.515 737.688, 1927.654 739.750 M 1823 740.846 C 1823 742.302, 1826.183 748.150, 1826.696 747.637 C 1827.392 746.941, 1824.759 740, 1823.799 740 C 1823.360 740, 1823 740.381, 1823 740.846 M 1827.032 750.128 C 1827.014 751.023, 1827.675 752.315, 1828.500 753 C 1830.423 754.596, 1830.443 752.968, 1828.532 750.441 C 1827.298 748.810, 1827.059 748.760, 1827.032 750.128 M 1746 758.460 C 1746 761.125, 1749.396 771, 1750.313 771 C 1750.808 771, 1751.002 770.438, 1750.743 769.750 C 1750.483 769.063, 1749.523 765.913, 1748.608 762.750 C 1746.984 757.138, 1746 755.519, 1746 758.460 M 1755.158 773 C 1755.158 774.375, 1755.385 774.938, 1755.662 774.250 C 1755.940 773.563, 1755.940 772.438, 1755.662 771.750 C 1755.385 771.063, 1755.158 771.625, 1755.158 773 M 1752.710 780.250 C 1755.043 787.807, 1755.212 789.550, 1754.712 801 C 1754.177 813.268, 1754.196 813.417, 1755.735 809.044 C 1757.203 804.875, 1757.360 804.740, 1758.178 806.953 C 1760.304 812.699, 1762.390 832.073, 1762.949 851.250 C 1762.977 852.212, 1763.507 853, 1764.126 853 C 1766.617 853, 1763.503 819.287, 1759.441 802.271 C 1758.099 796.646, 1756.974 790.121, 1756.942 787.771 C 1756.886 783.592, 1755.342 774.281, 1755.115 776.750 C 1754.904 779.040, 1753.209 778.039, 1752.150 775 C 1751.575 773.350, 1750.892 772, 1750.633 772 C 1750.374 772, 1751.308 775.712, 1752.710 780.250 M 1735.631 793 C 1736.776 805.777, 1737.959 810.180, 1737.384 799.524 C 1737.088 794.037, 1736.442 788.862, 1735.948 788.024 C 1735.390 787.077, 1735.270 788.963, 1735.631 793 M 1718.704 795.750 C 1719.317 799.719, 1719.706 800.627, 1720.469 799.864 C 1721.216 799.118, 1719.824 792, 1718.932 792 C 1718.489 792, 1718.386 793.688, 1718.704 795.750 M 1720.343 808.500 C 1720.346 812.900, 1720.522 814.576, 1720.733 812.224 C 1720.945 809.872, 1720.942 806.272, 1720.727 804.224 C 1720.512 802.176, 1720.339 804.100, 1720.343 808.500 M 1737.079 812.583 C 1737.127 813.748, 1737.364 813.985, 1737.683 813.188 C 1737.972 812.466, 1737.936 811.603, 1737.604 811.271 C 1737.272 810.939, 1737.036 811.529, 1737.079 812.583 M 1754.079 815.583 C 1754.127 816.748, 1754.364 816.985, 1754.683 816.188 C 1754.972 815.466, 1754.936 814.603, 1754.604 814.271 C 1754.272 813.939, 1754.036 814.529, 1754.079 815.583 M 1719.667 817.667 C 1719.300 818.033, 1719 819.838, 1719 821.677 C 1719 826.294, 1716.183 843.845, 1714.855 847.500 C 1714.256 849.150, 1713.143 851.918, 1712.383 853.651 C 1710.610 857.692, 1710.652 860.288, 1712.437 857 C 1715.445 851.460, 1718.181 840.872, 1719.529 829.559 C 1720.939 817.720, 1720.955 816.379, 1719.667 817.667 M 1752.079 824.583 C 1752.127 825.748, 1752.364 825.985, 1752.683 825.188 C 1752.972 824.466, 1752.936 823.603, 1752.604 823.271 C 1752.272 822.939, 1752.036 823.529, 1752.079 824.583 M 1734.603 829.750 C 1734.229 832.913, 1733.561 837.638, 1733.119 840.250 C 1732.678 842.862, 1732.632 845, 1733.017 845 C 1733.622 845, 1734.214 841.925, 1736.530 826.750 C 1736.761 825.237, 1736.575 824, 1736.117 824 C 1735.660 824, 1734.978 826.587, 1734.603 829.750 M 1874.070 832.509 C 1871.625 840.426, 1871.609 840.570, 1873.337 839.135 C 1874.834 837.893, 1877.652 827.319, 1876.731 826.398 C 1876.406 826.073, 1875.209 828.823, 1874.070 832.509 M 1750.241 832.500 C 1749.675 834.700, 1748.990 837.400, 1748.719 838.500 C 1748.448 839.600, 1747.908 841.400, 1747.519 842.500 C 1746.950 844.107, 1747.023 844.205, 1747.891 843 C 1749.395 840.910, 1752.197 831.070, 1751.689 829.661 C 1751.460 829.023, 1750.808 830.300, 1750.241 832.500 M 1868.635 847.250 C 1867.069 850.688, 1864.337 855.525, 1862.564 858 C 1858.069 864.277, 1854.414 870.480, 1855.668 869.705 C 1856.245 869.349, 1858.435 866.456, 1860.535 863.278 C 1862.635 860.100, 1865.636 855.609, 1867.204 853.299 C 1870.214 848.863, 1873.406 841, 1872.197 841 C 1871.804 841, 1870.201 843.813, 1868.635 847.250 M 1731.583 848.250 C 1729.655 855.050, 1729.011 858.092, 1729.070 860.116 C 1729.129 862.094, 1729.364 861.896, 1730.449 858.951 C 1732.061 854.575, 1733.397 847, 1732.557 847 C 1732.216 847, 1731.778 847.563, 1731.583 848.250 M 1743.667 850.667 C 1743.300 851.033, 1743 851.798, 1743 852.367 C 1743 852.993, 1743.466 852.934, 1744.183 852.217 C 1744.834 851.566, 1745.134 850.801, 1744.850 850.517 C 1744.566 850.232, 1744.033 850.300, 1743.667 850.667 M 1728.079 864.583 C 1728.127 865.748, 1728.364 865.985, 1728.683 865.188 C 1728.972 864.466, 1728.936 863.603, 1728.604 863.271 C 1728.272 862.939, 1728.036 863.529, 1728.079 864.583 M 1725.449 871.468 C 1724.652 873.375, 1724 875.450, 1724 876.079 C 1724 876.708, 1721.975 881.469, 1719.500 886.660 C 1717.025 891.851, 1715 896.353, 1715 896.665 C 1715 896.977, 1713.371 899.451, 1711.380 902.163 C 1707.014 908.111, 1707.456 909.737, 1711.910 904.114 C 1715.426 899.674, 1724.017 881.333, 1726.366 873.250 C 1728.103 867.274, 1727.605 866.307, 1725.449 871.468" stroke="#ffffff"></path></clipPath></defs></svg>